{
  "accessors": [
    {
      "bufferView": 2,
      "componentType": 5126,
      "count": 19532,
      "max": [
        18.584182739257813,
        79.79066467285156,
        80.5958251953125
      ],
      "min": [
        -18.087425231933594,
        0.041716694831848145,
        -84.34431457519531
      ],
      "type": "VEC3"
    },
    {
      "bufferView": 2,
      "byteOffset": 234384,
      "componentType": 5126,
      "count": 19532,
      "max": [
        0.9999524354934692,
        0.9999980330467224,
        0.9998060464859009
      ],
      "min": [
        -0.9999518990516663,
        -0.9999951720237732,
        -0.9999817609786987
      ],
      "type": "VEC3"
    },
    {
      "bufferView": 1,
      "componentType": 5126,
      "count": 19532,
      "max": [
        0.9926992058753967,
        0.9928951859474182
      ],
      "min": [
        0.005771022289991379,
        0.005910217761993408
      ],
      "type": "VEC2"
    },
    {
      "bufferView": 1,
      "byteOffset": 156256,
      "componentType": 5126,
      "count": 19532,
      "max": [
        0.9926992058753967,
        0.9928951859474182
      ],
      "min": [
        0.005771022289991379,
        0.005910217761993408
      ],
      "type": "VEC2"
    },
    {
      "bufferView": 1,
      "byteOffset": 312512,
      "componentType": 5126,
      "count": 19532,
      "max": [
        0.9926992058753967,
        0.9928951859474182
      ],
      "min": [
        0.005771022289991379,
        0.005910217761993408
      ],
      "type": "VEC2"
    },
    {
      "bufferView": 0,
      "componentType": 5125,
      "count": 102708,
      "type": "SCALAR"
    }
  ],
  "asset": {
    "extras": {
      "author": "Nyilonelycompany (https://sketchfab.com/Nyilonelycompany)",
      "license": "CC-BY-4.0 (http://creativecommons.org/licenses/by/4.0/)",
      "source": "https://sketchfab.com/3d-models/saber-tooth-tiger-c80183f49fa9426a8dec7e7ddde5d74e",
      "title": "Saber-tooth tiger"
    },
    "generator": "Sketchfab-12.78.0",
    "version": "2.0"
  },
  "bufferViews": [
    {
      "buffer": 0,
      "byteLength": 410832,
      "name": "floatBufferViews",
      "target": 34963
    },
    {
      "buffer": 0,
      "byteLength": 468768,
      "byteOffset": 410832,
      "byteStride": 8,
      "name": "floatBufferViews",
      "target": 34962
    },
    {
      "buffer": 0,
      "byteLength": 468768,
      "byteOffset": 879600,
      "byteStride": 12,
      "name": "floatBufferViews",
      "target": 34962
    }
  ],
  "buffers": [
    {
      "byteLength": 1348368,
      "uri": "scene.bin"
    }
  ],
  "extensionsRequired": [
    "KHR_materials_pbrSpecularGlossiness"
  ],
  "extensionsUsed": [
    "KHR_materials_pbrSpecularGlossiness"
  ],
  "images": [
    {
      "uri": "textures/material_diffuse.png"
    },
    {
      "uri": "textures/material_specularGlossiness.png"
    }
  ],
  "materials": [
    {
      "doubleSided": true,
      "extensions": {
        "KHR_materials_pbrSpecularGlossiness": {
          "diffuseFactor": [
            1.0,
            1.0,
            1.0,
            1.0
          ],
          "diffuseTexture": {
            "index": 0
          },
          "glossinessFactor": 1.0,
          "specularFactor": [
            1.0,
            1.0,
            1.0
          ],
          "specularGlossinessTexture": {
            "index": 1
          }
        }
      },
      "name": "material"
    }
  ],
  "meshes": [
    {
      "name": "Object_0",
      "primitives": [
        {
          "attributes": {
            "NORMAL": 1,
            "POSITION": 0,
            "TEXCOORD_0": 2,
            "TEXCOORD_1": 3,
            "TEXCOORD_2": 4
          },
          "indices": 5,
          "material": 0,
          "mode": 4
        }
      ]
    }
  ],
  "nodes": [
    {
      "children": [
        1
      ],
      "matrix": [
        1.0,
        0.0,
        0.0,
        0.0,
        0.0,
        2.220446049250313e-16,
        -1.0,
        0.0,
        0.0,
        1.0,
        2.220446049250313e-16,
        0.0,
        0.0,
        0.0,
        0.0,
        1.0
      ],
      "name": "Sketchfab_model"
    },
    {
      "children": [
        2
      ],
      "name": "root"
    },
    {
      "children": [
        3
      ],
      "matrix": [
        1.0,
        0.0,
        0.0,
        0.0,
        0.0,
        2.220446049250313e-16,
        1.0,
        0.0,
        0.0,
        -1.0,
        2.220446049250313e-16,
        0.0,
        0.0,
        0.0,
        0.0,
        1.0
      ],
      "name": "GLTF_SceneRootNode"
    },
    {
      "children": [
        4
      ],
      "name": "root_0"
    },
    {
      "children": [
        5
      ],
      "matrix": [
        0.006420147605240345,
        0.0,
        0.0,
        0.0,
        0.0,
        0.006420147605240345,
        0.0,
        0.0,
        0.0,
        0.0,
        0.006420147605240345,
        0.0,
        0.048366744071245193,
        -0.2527529001235962,
        1.1310266256332397,
        1.0
      ],
      "name": "node_id36_1"
    },
    {
      "mesh": 0,
      "name": "Object_5"
    }
  ],
  "samplers": [
    {
      "magFilter": 9729,
      "minFilter": 9987,
      "wrapS": 10497,
      "wrapT": 10497
    }
  ],
  "scene": 0,
  "scenes": [
    {
      "name": "Sketchfab_Scene",
      "nodes": [
        0
      ]
    }
  ],
  "textures": [
    {
      "sampler": 0,
      "source": 0
    },
    {
      "sampler": 0,
      "source": 1
    }
  ]
}
